<svg xmlns="http://www.w3.org/2000/svg" viewBox="0 0 140.81 32.41"><defs><style>.a,.b{fill:#fff;}.b{font-size:9.05px;font-family:Akrobat-Light, Akrobat;letter-spacing:0.11em;}.c{letter-spacing:0.11em;}.d{letter-spacing:0.09em;}.e{fill:#f44336;}</style></defs><title>logo_320</title><path class="a" d="M28.58,16.17l0-1.39c.16,0,.49,0,.63,0a1,1,0,0,0,1.15-1.1l0-5.06H32v5.29a2.23,2.23,0,0,1-2.52,2.34A3.65,3.65,0,0,1,28.58,16.17Z"/><path class="a" d="M33.92,13V8.65h1.66v4.11c0,1.11.52,2.07,1.75,2.07s1.75-1,1.75-2.07V8.64h1.66V13a3.14,3.14,0,0,1-3.41,3.31A3,3,0,0,1,33.92,13Z"/><path class="a" d="M42.84,16.14H41.15l2.92-7.51h1.76l2.94,7.5H47.08l-.66-1.78H43.5Zm1.09-3h2l-.78-2.22a6.22,6.22,0,0,1-.21-.85h-.06a8.53,8.53,0,0,1-.22.84Z"/><path class="a" d="M51.34,11.25c0,.18.09,1.39.09,1.68v3.19H49.86V8.62h.91l3.56,4c.41.44.6.69.79.9l.06,0c0-.14-.11-1-.11-2V8.61h1.56v7.5h-.91L52,11.94c-.15-.17-.45-.58-.56-.71Z"/><path class="a" d="M60.84,16.12l0-1.39c.16,0,.49,0,.63,0a1,1,0,0,0,1.15-1.1l0-5.06h1.65v5.29a2.23,2.23,0,0,1-2.52,2.34A3.65,3.65,0,0,1,60.84,16.12Z"/><path class="a" d="M65.85,12.36a3.73,3.73,0,1,1,7.46,0,3.73,3.73,0,1,1-7.46,0Zm1.62,0a2.1,2.1,0,1,0,4.19,0,2.1,2.1,0,1,0-4.19,0Z"/><path class="a" d="M74.48,15,75.35,14a3.81,3.81,0,0,0,2.38.86c.56,0,1.27-.26,1.27-.86,0-1.25-4.47-.56-4.48-3.35,0-1.14,1.13-2.23,3-2.23a4.14,4.14,0,0,1,3,1.13l-.79,1a3.67,3.67,0,0,0-2.22-.73c-.8,0-1.33.3-1.34.86,0,1.29,4.5.71,4.51,3.39,0,1.33-1.14,2.23-3,2.23A4.35,4.35,0,0,1,74.48,15Z"/><path class="a" d="M87.39,13H83.94v1.77h3.87v1.28H82.35V8.57h5.47V9.85H83.93v1.84h3.45Zm-.72-6.86v.19L84.95,7.72l-.3-.3L86,5.69h.19Z"/><path class="a" d="M96.47,13.57c.85.36.86,1.32,2.12,1.35v1.23c-2.55.32-2.57-2.24-3.8-2.24h-.87v2.15h-1.6V8.56h2.92c2.38,0,3.34,1.18,3.35,2.44a2.29,2.29,0,0,1-2.11,2.48Zm-1.26-.88c1.19,0,1.79-.69,1.77-1.54s-.66-1.39-1.85-1.39H93.91v2.93Z"/><path class="a" d="M105.24,13h-3.45v1.77h3.87V16H100.2V8.55h5.47V9.82h-3.87v1.84h3.45Z"/><path class="a" d="M108.82,11.17c0,.18.09,1.39.09,1.68V16h-1.56V8.54h.91l3.56,4c.41.44.6.69.79.9l.06,0c0-.14-.11-1-.11-2V8.53h1.56V16h-.91l-3.77-4.18c-.15-.17-.45-.58-.56-.71Z"/><path class="a" d="M116.11,16.09V8.46h2.69a3.76,3.76,0,0,1,4,3.78,3.8,3.8,0,0,1-4,3.85Zm2.67-1.45a2.3,2.3,0,0,0,2.43-2.39,2.3,2.3,0,0,0-2.45-2.38H117.7v4.77Z"/><path class="a" d="M124.13,12.27a3.73,3.73,0,1,1,7.46,0,3.73,3.73,0,1,1-7.46,0Zm1.62,0a2.1,2.1,0,1,0,4.19,0,2.1,2.1,0,1,0-4.19,0Zm3.92-6.19v.19l-1.72,1.38-.32-.3L129,5.63h.19Z"/><path class="a" d="M134.69,11.13c0,.18.09,1.39.09,1.68V16h-1.56V8.5h.91l3.56,4c.41.44.6.69.79.9l.06,0c0-.14-.11-1-.11-2V8.49H140V16h-.91l-3.77-4.18c-.15-.17-.45-.58-.56-.71Z"/><text class="b" transform="translate(27.85 30.27)">In<tspan class="c" x="7.93" y="0">t</tspan><tspan x="11.52" y="0">e</tspan><tspan class="d" x="16.49" y="0">r</tspan><tspan x="20.27" y="0">active Media Designer</tspan></text><rect class="e" x="0.01" width="4.32" height="4.32"/><path class="a" d="M18.69,19.46a8.63,8.63,0,0,1,2.93,6.48v4.32H17.3V25.94A4.32,4.32,0,0,0,13,21.62V17.3A4.33,4.33,0,0,0,17.3,13V8.65H8.65V4.32h13V13a8.6,8.6,0,0,1-1.16,4.33A8.69,8.69,0,0,1,18.69,19.46ZM4.32,8.65v13A4.32,4.32,0,0,1,0,25.94v4.32a8.6,8.6,0,0,0,4.32-1.16l.49-.3a8.69,8.69,0,0,0,2.68-2.86,8.6,8.6,0,0,0,1.16-4.33v-13Z"/></svg>