<svg xmlns="http://www.w3.org/2000/svg" viewBox="0 0 42.86 60"><defs><style>.a{fill:#7b7b7b;}</style></defs><title>logo</title><rect class="a" x="0.01" width="8.57" height="8.57"/><path class="a" d="M37.05,38.58a17.1,17.1,0,0,1,5.81,12.85V60H34.29V51.43a8.57,8.57,0,0,0-8.57-8.57V34.29a8.57,8.57,0,0,0,8.57-8.58V17.14H17.14V8.57H42.86V25.71a17,17,0,0,1-2.3,8.58A17.22,17.22,0,0,1,37.05,38.58ZM8.57,17.14V42.86A8.57,8.57,0,0,1,0,51.43V60a17,17,0,0,0,8.57-2.3c.33-.19.65-.39,1-.6a17.23,17.23,0,0,0,5.31-5.68,17,17,0,0,0,2.3-8.58V17.14Z"/></svg>