<svg xmlns="http://www.w3.org/2000/svg" viewBox="0 0 140.81 32.41"><defs><style>.cls-1{fill:#fff;}.cls-2{fill:#f44336;}</style></defs><title>web_design_portafolio_320_grid</title><g id="Capa_3" data-name="Capa 3"><path class="cls-1" d="M28.58,16.17l0-1.39c.16,0,.49,0,.63,0a1,1,0,0,0,1.15-1.1l0-5.06H32v5.29a2.23,2.23,0,0,1-2.52,2.34A3.65,3.65,0,0,1,28.58,16.17Z"/><path class="cls-1" d="M33.92,13V8.65h1.66v4.11c0,1.11.52,2.07,1.75,2.07s1.75-1,1.75-2.07V8.64h1.66V13a3.14,3.14,0,0,1-3.41,3.31A3,3,0,0,1,33.92,13Z"/><path class="cls-1" d="M42.84,16.14H41.15l2.92-7.51h1.76l2.94,7.5H47.08l-.66-1.78H43.5Zm1.09-3h2l-.78-2.22a6.22,6.22,0,0,1-.21-.85h-.06a8.53,8.53,0,0,1-.22.84Z"/><path class="cls-1" d="M51.34,11.25c0,.18.09,1.39.09,1.68v3.19H49.86V8.62h.91l3.56,4c.41.44.6.69.79.9l.06,0c0-.14-.11-1-.11-2V8.61h1.56v7.5h-.91L52,11.94c-.15-.17-.45-.58-.56-.71Z"/><path class="cls-1" d="M60.84,16.12l0-1.39c.16,0,.49,0,.63,0a1,1,0,0,0,1.15-1.1l0-5.06h1.65v5.29a2.23,2.23,0,0,1-2.52,2.34A3.65,3.65,0,0,1,60.84,16.12Z"/><path class="cls-1" d="M65.85,12.36a3.73,3.73,0,1,1,7.46,0,3.73,3.73,0,1,1-7.46,0Zm1.62,0a2.1,2.1,0,1,0,4.19,0,2.1,2.1,0,1,0-4.19,0Z"/><path class="cls-1" d="M74.48,15,75.35,14a3.81,3.81,0,0,0,2.38.86c.56,0,1.27-.26,1.27-.86,0-1.25-4.47-.56-4.48-3.35,0-1.14,1.13-2.23,3-2.23a4.14,4.14,0,0,1,3,1.13l-.79,1a3.67,3.67,0,0,0-2.22-.73c-.8,0-1.33.3-1.34.86,0,1.29,4.5.71,4.51,3.39,0,1.33-1.14,2.23-3,2.23A4.35,4.35,0,0,1,74.48,15Z"/><path class="cls-1" d="M87.39,13H83.94v1.77h3.87v1.28H82.35V8.57h5.47V9.85H83.93v1.84h3.45Zm-.72-6.86v.19L84.95,7.72l-.3-.3L86,5.69h.19Z"/><path class="cls-1" d="M96.47,13.57c.85.36.86,1.32,2.12,1.35v1.23c-2.55.32-2.57-2.24-3.8-2.24h-.87v2.15h-1.6V8.56h2.92c2.38,0,3.34,1.18,3.35,2.44a2.29,2.29,0,0,1-2.11,2.48Zm-1.26-.88c1.19,0,1.79-.69,1.77-1.54s-.66-1.39-1.85-1.39H93.91v2.93Z"/><path class="cls-1" d="M105.24,13h-3.45v1.77h3.87V16H100.2V8.55h5.47V9.82h-3.87v1.84h3.45Z"/><path class="cls-1" d="M108.82,11.17c0,.18.09,1.39.09,1.68V16h-1.56V8.54h.91l3.56,4c.41.44.6.69.79.9l.06,0c0-.14-.11-1-.11-2V8.53h1.56V16h-.91l-3.77-4.18c-.15-.17-.45-.58-.56-.71Z"/><path class="cls-1" d="M116.11,16.09V8.46h2.69a3.76,3.76,0,0,1,4,3.78,3.8,3.8,0,0,1-4,3.85Zm2.67-1.45a2.3,2.3,0,0,0,2.43-2.39,2.3,2.3,0,0,0-2.45-2.38H117.7v4.77Z"/><path class="cls-1" d="M124.13,12.27a3.73,3.73,0,1,1,7.46,0,3.73,3.73,0,1,1-7.46,0Zm1.62,0a2.1,2.1,0,1,0,4.19,0,2.1,2.1,0,1,0-4.19,0Zm3.92-6.19v.19l-1.72,1.38-.32-.3L129,5.63h.19Z"/><path class="cls-1" d="M134.69,11.13c0,.18.09,1.39.09,1.68V16h-1.56V8.5h.91l3.56,4c.41.44.6.69.79.9l.06,0c0-.14-.11-1-.11-2V8.49H140V16h-.91l-3.77-4.18c-.15-.17-.45-.58-.56-.71Z"/><path class="cls-1" d="M29,23.94v6.33h-.41V23.94Z"/><path class="cls-1" d="M34.23,27.22v3.06h-.39v-3c0-1-.31-1.46-.93-1.46s-1.19.61-1.19,1.57v2.89h-.39V25.54h.33l.05.62v.08a1.38,1.38,0,0,1,1.28-.8C33.75,25.44,34.23,26,34.23,27.22Z"/><path class="cls-1" d="M38.17,29.94v.37h-.23A1.17,1.17,0,0,1,36.67,29V25.9H36v-.36h.7v-1.1h.39v1.1h1v.36h-1V29c0,.65.29,1,.89,1Z"/><path class="cls-1" d="M42.92,28.85a1.47,1.47,0,0,1-1.57,1.51,1.42,1.42,0,0,1-1.46-1.6V27a1.42,1.42,0,0,1,1.46-1.6A1.44,1.44,0,0,1,42.85,27V28.1H40.28v.66c0,.79.41,1.22,1.08,1.22a1.08,1.08,0,0,0,1.17-1.13ZM40.28,27v.7h2.18V27c0-.79-.42-1.22-1.1-1.22S40.28,26.26,40.28,27Z"/><path class="cls-1" d="M47.12,25.5v.42a1.84,1.84,0,0,0-.57-.08c-.7,0-1.19.61-1.19,1.56v2.88H45V25.54h.34l.05.6v.11a1.39,1.39,0,0,1,1.27-.81A1.8,1.8,0,0,1,47.12,25.5Z"/><path class="cls-1" d="M51.49,26.94v3.34h-.34l0-.51a1.28,1.28,0,0,1-1.17.61,1.33,1.33,0,0,1-1.41-1.44c0-.89.57-1.39,1.59-1.39h1v-.6c0-.72-.35-1.13-1-1.13a.94.94,0,0,0-1,.91h-.4a1.41,1.41,0,0,1,2.81.21Zm-.39,2v-1h-1c-.78,0-1.19.37-1.19,1A1,1,0,0,0,50,30,1,1,0,0,0,51.1,28.9Z"/><path class="cls-1" d="M53.61,28.76V27a1.41,1.41,0,0,1,1.44-1.6,1.45,1.45,0,0,1,1.49,1.63h-.4c0-.81-.42-1.25-1.1-1.25s-1,.43-1,1.22v1.72c0,.79.41,1.22,1.06,1.22s1.09-.43,1.1-1.26h.4a1.46,1.46,0,0,1-1.5,1.64A1.42,1.42,0,0,1,53.61,28.76Z"/><path class="cls-1" d="M60.32,29.94v.37h-.23A1.17,1.17,0,0,1,58.82,29V25.9h-.7v-.36h.7v-1.1h.39v1.1h1v.36h-1V29c0,.65.29,1,.89,1Z"/><path class="cls-1" d="M62,24.29a.35.35,0,1,1,.34.35A.33.33,0,0,1,62,24.29Zm.15,1.25h.39v4.73h-.39Z"/><path class="cls-1" d="M67.39,25.54,66,30.27h-.42l-1.36-4.73h.42l.81,2.94c.1.41.24,1,.33,1.28h0c.09-.33.23-.87.33-1.28L67,25.54Z"/><path class="cls-1" d="M72,28.85a1.47,1.47,0,0,1-1.57,1.51A1.42,1.42,0,0,1,69,28.76V27a1.42,1.42,0,0,1,1.47-1.6A1.44,1.44,0,0,1,72,27V28.1H69.39v.66c0,.79.41,1.22,1.08,1.22a1.08,1.08,0,0,0,1.17-1.13ZM69.39,27v.7h2.18V27c0-.79-.42-1.22-1.1-1.22S69.39,26.26,69.39,27Z"/><path class="cls-1" d="M81.66,23.94v6.32h-.42V26.18c0-.49,0-.92,0-1.35h0c-.14.35-.32.8-.5,1.24l-1,2.62H79.3l-1.06-2.62-.49-1.24h0c0,.43,0,.86,0,1.35v4.08h-.41V23.94h.43l1.29,3.11c.13.33.31.82.42,1.13h0c.11-.31.28-.8.42-1.13l1.28-3.11Z"/><path class="cls-1" d="M86.92,28.85a1.47,1.47,0,0,1-1.57,1.51,1.42,1.42,0,0,1-1.46-1.6V27a1.42,1.42,0,0,1,1.47-1.6A1.44,1.44,0,0,1,86.85,27V28.1H84.28v.66c0,.79.41,1.22,1.08,1.22a1.08,1.08,0,0,0,1.17-1.13ZM84.28,27v.7h2.18V27c0-.79-.42-1.22-1.1-1.22S84.28,26.26,84.28,27Z"/><path class="cls-1" d="M91.81,23.73v6.54h-.33l0-.5a1.39,1.39,0,0,1-1.16.6c-.82,0-1.42-.61-1.42-1.67V27.09c0-1,.54-1.65,1.39-1.65a1.25,1.25,0,0,1,1.18.7V23.73Zm-.38,5V27.2c0-.88-.47-1.39-1.09-1.39s-1.09.43-1.09,1.28V28.7c0,.87.44,1.31,1.11,1.31A1.11,1.11,0,0,0,91.43,28.75Z"/><path class="cls-1" d="M93.9,24.29a.35.35,0,1,1,.34.35A.33.33,0,0,1,93.9,24.29Zm.15,1.25h.39v4.73h-.39Z"/><path class="cls-1" d="M99.4,26.94v3.34h-.34l0-.51a1.28,1.28,0,0,1-1.17.61,1.33,1.33,0,0,1-1.41-1.44c0-.89.57-1.39,1.59-1.39h1v-.6c0-.72-.35-1.13-1-1.13a.94.94,0,0,0-1,.91h-.4a1.41,1.41,0,0,1,2.81.21Zm-.39,2v-1H98c-.78,0-1.19.37-1.19,1a1,1,0,0,0,1.07,1A1,1,0,0,0,99,28.9Z"/><path class="cls-1" d="M104.92,23.94h1.38a1.63,1.63,0,0,1,1.78,1.81v2.67a1.67,1.67,0,0,1-1.78,1.85h-1.38Zm1.38,5.94c.88,0,1.38-.52,1.38-1.48V25.77a1.26,1.26,0,0,0-1.38-1.44h-1v5.56Z"/><path class="cls-1" d="M113.17,28.85a1.47,1.47,0,0,1-1.57,1.51,1.42,1.42,0,0,1-1.46-1.6V27a1.42,1.42,0,0,1,1.46-1.6A1.44,1.44,0,0,1,113.1,27V28.1h-2.57v.66c0,.79.41,1.22,1.08,1.22a1.08,1.08,0,0,0,1.17-1.13ZM110.53,27v.7h2.18V27c0-.79-.42-1.22-1.1-1.22S110.53,26.26,110.53,27Z"/><path class="cls-1" d="M114.92,28.94h.39A1,1,0,0,0,116.42,30a.89.89,0,0,0,1-.87c0-1.27-2.45-.89-2.45-2.47a1.23,1.23,0,0,1,1.36-1.21,1.3,1.3,0,0,1,1.4,1.34h-.39a.92.92,0,0,0-1-1,.85.85,0,0,0-1,.85c0,1.22,2.45.83,2.45,2.47a1.28,1.28,0,0,1-1.4,1.24A1.38,1.38,0,0,1,114.92,28.94Z"/><path class="cls-1" d="M119.63,24.29a.35.35,0,1,1,.34.35A.33.33,0,0,1,119.63,24.29Zm.15,1.25h.39v4.73h-.39Z"/><path class="cls-1" d="M125.25,25.54v5A1.33,1.33,0,0,1,123.83,32a1.35,1.35,0,0,1-1.47-1.33h.38a1,1,0,0,0,1.09,1,1,1,0,0,0,1-1.06v-1a1.28,1.28,0,0,1-1.09.56,1.46,1.46,0,0,1-1.47-1.61V27.12a1.47,1.47,0,0,1,1.46-1.67,1.26,1.26,0,0,1,1.12.64l0-.54Zm-.4,3.06V27a1.06,1.06,0,0,0-1-1.19c-.68,0-1.14.43-1.14,1.3v1.44a1.1,1.1,0,0,0,1.14,1.24C124.43,29.79,124.85,29.35,124.85,28.6Z"/><path class="cls-1" d="M130.38,27.22v3.06H130v-3c0-1-.31-1.46-.93-1.46s-1.19.61-1.19,1.57v2.89h-.39V25.54h.33l.05.62v.08a1.39,1.39,0,0,1,1.28-.8C129.9,25.44,130.38,26,130.38,27.22Z"/><path class="cls-1" d="M135.47,28.85a1.47,1.47,0,0,1-1.57,1.51,1.42,1.42,0,0,1-1.46-1.6V27a1.42,1.42,0,0,1,1.47-1.6A1.44,1.44,0,0,1,135.4,27V28.1h-2.57v.66c0,.79.41,1.22,1.08,1.22a1.08,1.08,0,0,0,1.17-1.13ZM132.83,27v.7H135V27c0-.79-.42-1.22-1.1-1.22S132.83,26.26,132.83,27Z"/><path class="cls-1" d="M139.67,25.5v.42a1.85,1.85,0,0,0-.57-.08c-.7,0-1.19.61-1.19,1.56v2.88h-.39V25.54h.33l.05.6v.11a1.39,1.39,0,0,1,1.27-.81A1.8,1.8,0,0,1,139.67,25.5Z"/><rect class="cls-2" x="0.01" width="4.32" height="4.32"/><path class="cls-1" d="M18.69,19.46a8.63,8.63,0,0,1,2.93,6.48v4.32H17.3V25.94A4.32,4.32,0,0,0,13,21.62V17.3A4.33,4.33,0,0,0,17.3,13V8.65H8.65V4.32h13V13a8.6,8.6,0,0,1-1.16,4.33A8.69,8.69,0,0,1,18.69,19.46ZM4.32,8.65v13A4.32,4.32,0,0,1,0,25.94v4.32a8.6,8.6,0,0,0,4.32-1.16l.49-.3a8.69,8.69,0,0,0,2.68-2.86,8.6,8.6,0,0,0,1.16-4.33v-13Z"/></g></svg>